<?xml version="1.0"?>
<svg version="1.1" xmlns="http://www.w3.org/2000/svg" width="400" height="400" style=""><path fill="#36d64e" d="M17.978515625,188.0859375q0-2.294921875,0.1220703125-4.541015625t0.4150390625-4.443359375q0.1953125-1.123046875,1.7333984375-1.611328125t2.5634765625-0.48828125l1.171875,0.09765625q1.416015625,0.1953125,2.8564453125-0.1953125t2.8564453125-0.390625q3.3203125,0,7.421875,0.732421875t7.6904296875,2.490234375t6.0302734375,4.6142578125t2.44140625,7.0556640625t-2.5390625,7.8369140625t-6.396484375,6.396484375t-8.30078125,4.3212890625t-8.154296875,1.5625q0.390625,9.423828125,1.0986328125,18.701171875t2.4169921875,18.5546875l0.09765625,0.634765625q0,0.68359375-0.6103515625,1.123046875t-1.4404296875,0.7080078125t-1.6845703125,0.3662109375t-1.3916015625,0.09765625q-1.220703125,0-2.9541015625-0.4638671875t-2.1240234375-1.8310546875q-1.123046875-4.296875-1.7578125-9.4482421875t-0.927734375-10.7666015625t-0.4150390625-11.3037109375t-0.1220703125-11.1083984375l0-10.986328125q0-1.806640625-0.048828125-3.759765625t-0.048828125-3.955078125z M27.20703125,180.17578125q0,6.689453125,0.146484375,13.3544921875t0.341796875,13.3544921875q2.880859375-0.5859375,5.8837890625-2.0751953125t5.419921875-3.5400390625t3.90625-4.6630859375t1.4892578125-5.4931640625q0-2.587890625-1.2939453125-4.638671875t-3.3447265625-3.515625q-2.001953125-1.416015625-4.541015625-2.197265625q-2.24609375-0.68359375-4.39453125-0.68359375l-0.537109375,0z M63.27490234375,231.787109375q0-3.3203125,0.9033203125-6.396484375t2.7099609375-5.4931640625t4.5166015625-3.857421875t6.2744140625-1.4404296875q2.197265625,0,4.8583984375,0.6591796875t5.0048828125,1.953125t3.90625,3.2958984375t1.5625,4.58984375q0,1.220703125-0.4150390625,1.85546875t-1.6845703125,0.634765625l-0.537109375-0.09765625q1.416015625,3.80859375,2.44140625,7.8125t2.001953125,8.0078125q0.390625,0.78125,0.5859375,1.3916015625t0.1953125,1.1962890625q0,0.78125-0.439453125,1.2939453125t-1.1474609375,0.7568359375t-1.46484375,0.341796875t-1.3427734375,0.09765625q-2.099609375,0-3.1494140625-0.732421875t-1.513671875-2.001953125t-0.5615234375-2.8564453125t-0.390625-3.1982421875q-0.5859375,1.904296875-1.5380859375,3.7109375t-2.24609375,3.2470703125t-3.0517578125,2.294921875t-3.955078125,0.8544921875q-3.22265625,0-5.419921875-1.85546875t-3.5400390625-4.5654296875t-1.953125-5.7861328125t-0.6103515625-5.712890625z M70.20849609375,231.103515625q0,1.806640625,0.244140625,3.80859375t0.8056640625,3.955078125t1.4404296875,3.6865234375t2.197265625,3.0517578125q2.392578125-2.587890625,3.5400390625-6.298828125t2.05078125-7.1533203125t2.05078125-5.908203125t3.5400390625-2.4658203125q1.513671875,0,2.5390625,0.537109375q-0.48828125-1.220703125-1.611328125-2.3681640625t-2.5146484375-2.099609375t-2.880859375-1.5625t-2.8076171875-0.6103515625q-0.390625,0-0.9033203125,0.1220703125t-0.8056640625,0.0244140625q-2.001953125,0.5859375-3.2958984375,2.0263671875t-2.099609375,3.3935546875t-1.1474609375,4.00390625t-0.341796875,3.857421875z M105.5927734375,218.115234375q0-2.001953125,0.7080078125-3.369140625t3.0029296875-1.3671875q0.87890625,0,2.197265625,0.2685546875t1.513671875,1.3427734375q0.48828125,2.880859375,0.537109375,6.25t0.341796875,6.34765625q1.123046875-2.197265625,2.880859375-4.736328125t4.00390625-4.6875t4.8828125-3.564453125t5.37109375-1.416015625q0.1953125,0,0.732421875,0.146484375t1.0009765625,0.4150390625t0.5615234375,0.6103515625t-0.537109375,0.634765625q-0.1953125,0.5859375-0.830078125,0.7080078125t-1.123046875,0.1220703125q-0.29296875,0-0.927734375-0.244140625q-3.61328125,1.904296875-6.15234375,5.17578125t-4.150390625,7.2509765625t-2.34375,8.3984375t-0.732421875,8.6181640625q0,2.099609375-0.9521484375,2.5390625t-3.0517578125,0.439453125q-1.123046875,0-2.3681640625-0.244140625t-1.7333984375-1.5625q-0.87890625-2.783203125-1.4404296875-6.396484375t-0.8544921875-7.4462890625t-0.4150390625-7.5439453125t-0.1220703125-6.689453125z M140.41552734375,219.5556640625q-0.1220703125-1.6357421875,0.1953125-3.0029296875t1.26953125-2.2216796875t3.0517578125-0.8544921875q0.48828125,0,1.1962890625,0.1220703125t1.3916015625,0.3173828125t1.1474609375,0.5859375t0.4638671875,1.07421875l0,5.517578125q1.904296875-2.197265625,4.150390625-3.1494140625t5.126953125-0.9521484375q2.197265625,0,4.345703125,1.0009765625t4.052734375,2.6611328125t3.2958984375,3.662109375t2.0263671875,4.00390625q0.390625-1.806640625,0.87890625-4.4189453125t1.4404296875-5.0048828125t2.5146484375-4.1015625t4.150390625-1.708984375q2.783203125,0,4.6875,2.001953125t3.1005859375,5.2001953125t1.806640625,7.1533203125t0.9033203125,7.8125t0.29296875,7.2021484375l0,5.2490234375q0,0.5859375-0.439453125,0.9521484375t-1.0986328125,0.5615234375t-1.3671875,0.244140625t-1.0986328125,0.048828125q-1.513671875,0-2.7587890625-0.4638671875t-1.2451171875-2.3681640625l0-4.39453125t-0.09765625-5.6884765625t-0.341796875-6.103515625t-0.634765625-5.5419921875t-1.0009765625-4.00390625t-1.4892578125-1.5625q-1.220703125,0-1.7578125,1.3671875t-0.9033203125,3.466796875t-0.5615234375,4.443359375t-0.537109375,4.443359375t-1.0986328125,3.4423828125t-2.0751953125,1.3427734375q-1.416015625,0-2.490234375-1.3427734375t-2.1240234375-3.3447265625t-2.099609375-4.296875t-2.3193359375-4.296875q-1.26953125-2.05078125-2.734375-3.3203125q-1.318359375-1.220703125-2.978515625-1.171875l-0.244140625,0q-2.197265625,0.09765625-3.4423828125,1.5869140625t-1.904296875,3.6376953125t-0.8056640625,4.6142578125t-0.146484375,4.3212890625q0,1.7578125,0.29296875,4.1015625q0.1953125,1.5625,0.1953125,2.978515625q0,0.732421875-0.048828125,1.416015625q-0.146484375,2.05078125-1.0986328125,3.4423828125t-3.5400390625,1.3916015625q-0.9765625,0-2.44140625-0.1953125t-1.953125-1.318359375q-1.123046875-2.001953125-1.708984375-5.0537109375t-0.87890625-6.298828125t-0.341796875-6.4453125t-0.048828125-5.4931640625q0-1.611328125-0.1220703125-3.2470703125z M201.99609375,231.787109375q0-3.3203125,0.9033203125-6.396484375t2.7099609375-5.4931640625t4.5166015625-3.857421875t6.2744140625-1.4404296875q2.197265625,0,4.8583984375,0.6591796875t5.0048828125,1.953125t3.90625,3.2958984375t1.5625,4.58984375q0,1.220703125-0.4150390625,1.85546875t-1.6845703125,0.634765625l-0.537109375-0.09765625q1.416015625,3.80859375,2.44140625,7.8125t2.001953125,8.0078125q0.390625,0.78125,0.5859375,1.3916015625t0.1953125,1.1962890625q0,0.78125-0.439453125,1.2939453125t-1.1474609375,0.7568359375t-1.46484375,0.341796875t-1.3427734375,0.09765625q-2.099609375,0-3.1494140625-0.732421875t-1.513671875-2.001953125t-0.5615234375-2.8564453125t-0.390625-3.1982421875q-0.5859375,1.904296875-1.5380859375,3.7109375t-2.24609375,3.2470703125t-3.0517578125,2.294921875t-3.955078125,0.8544921875q-3.22265625,0-5.419921875-1.85546875t-3.5400390625-4.5654296875t-1.953125-5.7861328125t-0.6103515625-5.712890625z M208.9296875,231.103515625q0,1.806640625,0.244140625,3.80859375t0.8056640625,3.955078125t1.4404296875,3.6865234375t2.197265625,3.0517578125q2.392578125-2.587890625,3.5400390625-6.298828125t2.05078125-7.1533203125t2.05078125-5.908203125t3.5400390625-2.4658203125q1.513671875,0,2.5390625,0.537109375q-0.48828125-1.220703125-1.611328125-2.3681640625t-2.5146484375-2.099609375t-2.880859375-1.5625t-2.8076171875-0.6103515625q-0.390625,0-0.9033203125,0.1220703125t-0.8056640625,0.0244140625q-2.001953125,0.5859375-3.2958984375,2.0263671875t-2.099609375,3.3935546875t-1.1474609375,4.00390625t-0.341796875,3.857421875z M244.36279296875,232.03125l0-1.416015625q0-1.7578125,0.09765625-3.3203125q0.09765625-2.197265625,0.09765625-3.61328125q0-0.78125,0.09765625-1.7822265625t0.48828125-1.5869140625q0.48828125-0.48828125,1.1474609375-1.0009765625t1.4404296875-0.5126953125q2.490234375,0,3.90625,0.5615234375t1.513671875,2.3193359375l0.1953125,1.513671875q0.87890625-2.099609375,2.34375-5.2001953125t3.3935546875-5.908203125t4.345703125-4.78515625t5.1025390625-1.9775390625q2.490234375,0,4.1015625,2.34375t2.5634765625,5.9814453125t1.3427734375,8.10546875t0.537109375,8.7646484375t0.1953125,7.8369140625t0.341796875,5.3466796875q0.1953125,1.513671875,0.6591796875,3.1982421875t0.4638671875,3.1005859375q0,0.390625-0.5615234375,0.7568359375t-1.1962890625,0.6103515625t-1.2939453125,0.390625t-0.9521484375,0.146484375q-1.904296875,0-2.7099609375-2.8564453125t-1.0009765625-7.1533203125t-0.1953125-9.3017578125t-0.341796875-9.3017578125t-1.3916015625-7.1533203125t-3.3447265625-2.9541015625q-2.099609375,0-4.345703125,2.7099609375t-3.857421875,7.2021484375q-1.5625,4.4921875-2.1484375,10.205078125q-0.1953125,1.806640625-0.1953125,3.61328125q0,3.955078125,0.830078125,7.91015625q0.09765625,0.68359375-0.5615234375,1.025390625t-1.6357421875,0.537109375t-1.9775390625,0.244140625t-1.5380859375,0.048828125q-1.904296875,0-3.0517578125-1.3427734375t-1.7822265625-3.4423828125t-0.8544921875-4.7119140625t-0.2685546875-5.1513671875z"/><path fill="#ffffff" d="M291.646484375,194.6240234375q0-1.025390625,0.3515625-1.376953125t0.9814453125-0.3515625q0.17578125,0,0.37353515625,0.029296875t0.37353515625,0.087890625q0.9814453125-0.1904296875,1.8603515625-0.1904296875q1.4208984375,0,2.578125,0.498046875q1.8603515625,0.791015625,3.076171875,2.34375t1.787109375,3.6474609375t0.5712890625,4.2919921875q0,1.23046875-0.16845703125,2.5634765625t-0.65185546875,2.4755859375q-0.4248046875,1.025390625-1.171875,2.14599609375t-1.69189453125,2.1240234375t-2.0361328125,1.7578125t-2.20458984375,1.01806640625l0,0.1171875q0,0.29296875-0.15380859375,0.47607421875t-0.37353515625,0.2783203125t-0.50537109375,0.12451171875t-0.53466796875,0.029296875q-0.146484375,0-0.41748046875-0.029296875t-0.52734375-0.10986328125t-0.43212890625-0.21240234375t-0.17578125-0.3662109375q0-2.666015625-0.13916015625-5.33935546875t-0.31494140625-5.3466796875t-0.31494140625-5.33935546875t-0.13916015625-5.3466796875z M294.4150390625,193.876953125q0.146484375,1.40625,0.1904296875,2.80517578125t0.1318359375,2.80517578125q0.234375,3.6328125,0.5419921875,7.22900390625t0.3662109375,7.22900390625q1.40625-0.9228515625,2.40966796875-2.109375t1.64794921875-2.578125t0.94482421875-2.92236328125t0.30029296875-3.15673828125q0-1.171875-0.205078125-2.578125t-0.703125-2.7099609375t-1.34033203125-2.3583984375t-2.10205078125-1.5087890625q-0.263671875-0.087890625-0.63720703125-0.146484375t-1.19384765625-0.05859375q-0.087890625,0-0.17578125,0.029296875t-0.17578125,0.029296875z M306.58305664062,209.5361328125q0-0.99609375,0.27099609375-1.9189453125t0.81298828125-1.64794921875t1.35498046875-1.1572265625t1.88232421875-0.43212890625q0.6591796875,0,1.45751953125,0.19775390625t1.50146484375,0.5859375t1.171875,0.98876953125t0.46875,1.376953125q0,0.3662109375-0.12451171875,0.556640625t-0.50537109375,0.1904296875l-0.1611328125-0.029296875q0.4248046875,1.142578125,0.732421875,2.34375t0.6005859375,2.40234375q0.1171875,0.234375,0.17578125,0.41748046875t0.05859375,0.35888671875q0,0.234375-0.1318359375,0.38818359375t-0.34423828125,0.22705078125t-0.439453125,0.1025390625t-0.40283203125,0.029296875q-0.6298828125,0-0.94482421875-0.2197265625t-0.4541015625-0.6005859375t-0.16845703125-0.85693359375t-0.1171875-0.95947265625q-0.17578125,0.5712890625-0.46142578125,1.11328125t-0.673828125,0.97412109375t-0.91552734375,0.6884765625t-1.1865234375,0.25634765625q-0.966796875,0-1.6259765625-0.556640625t-1.06201171875-1.36962890625t-0.5859375-1.73583984375t-0.18310546875-1.7138671875z M308.66313476562,209.3310546875q0,0.5419921875,0.0732421875,1.142578125t0.24169921875,1.1865234375t0.43212890625,1.10595703125t0.6591796875,0.91552734375q0.7177734375-0.7763671875,1.06201171875-1.8896484375t0.615234375-2.14599609375t0.615234375-1.7724609375t1.06201171875-0.73974609375q0.4541015625,0,0.76171875,0.1611328125q-0.146484375-0.3662109375-0.4833984375-0.71044921875t-0.75439453125-0.6298828125t-0.8642578125-0.46875t-0.84228515625-0.18310546875q-0.1171875,0-0.27099609375,0.03662109375t-0.24169921875,0.00732421875q-0.6005859375,0.17578125-0.98876953125,0.60791015625t-0.6298828125,1.01806640625t-0.34423828125,1.201171875t-0.1025390625,1.1572265625z M319.27841796875,204.2333984375q0-0.6884765625,0.27099609375-1.01806640625t0.98876953125-0.32958984375q0.4248046875,0,0.79833984375,0.17578125t0.37353515625,0.7470703125q0.05859375,0.8349609375,0.05859375,1.75048828125t0.1611328125,1.73583984375q0.3662109375-0.6005859375,0.82763671875-1.201171875t1.01806640625-1.0693359375t1.2158203125-0.75439453125t1.435546875-0.28564453125q1.0546875,0,1.787109375,0.439453125t1.20849609375,1.142578125t0.6884765625,1.58935546875t0.21240234375,1.77978515625q0,1.376953125-0.41748046875,2.24853515625t-1.10595703125,1.36962890625t-1.56005859375,0.673828125t-1.75048828125,0.17578125q-0.7763671875,0-1.4501953125-0.30029296875t-0.9375-1.13525390625q0-0.234375,0.34423828125-0.29296875t0.49072265625-0.05859375q0.4833984375,0,0.7177734375,0.263671875q0.17578125,0.205078125,0.38818359375,0.41748046875t0.44677734375,0.21240234375q0.4541015625,0,0.9521484375-0.25634765625t0.91552734375-0.673828125t0.703125-0.98876953125t0.28564453125-1.171875q0-0.5126953125-0.087890625-1.2744140625t-0.30029296875-1.46484375t-0.5859375-1.2158203125t-0.94482421875-0.5126953125q-0.8642578125,0-1.56005859375,0.791015625t-1.1572265625,1.904296875t-0.7177734375,2.314453125t-0.25634765625,2.0068359375t0.1025390625,2.0361328125t0.21240234375,2.55615234375t0.21240234375,2.55615234375t0.1025390625,2.0361328125q0,0.205078125-0.16845703125,0.32958984375t-0.40283203125,0.19775390625t-0.47607421875,0.087890625t-0.35888671875,0.0146484375q-0.3955078125,0-0.82763671875-0.087890625t-0.59326171875-0.5419921875q-0.205078125-0.7177734375-0.380859375-2.04345703125t-0.31494140625-2.9296875t-0.24169921875-3.369140625t-0.17578125-3.40576171875t-0.10986328125-3.0029296875t-0.03662109375-2.16796875z M333.32143554688,204.2333984375q0-0.6884765625,0.27099609375-1.01806640625t0.98876953125-0.32958984375q0.4248046875,0,0.79833984375,0.17578125t0.37353515625,0.7470703125q0.05859375,0.8349609375,0.05859375,1.75048828125t0.1611328125,1.73583984375q0.3662109375-0.6005859375,0.82763671875-1.201171875t1.01806640625-1.0693359375t1.2158203125-0.75439453125t1.435546875-0.28564453125q1.0546875,0,1.787109375,0.439453125t1.20849609375,1.142578125t0.6884765625,1.58935546875t0.21240234375,1.77978515625q0,1.376953125-0.41748046875,2.24853515625t-1.10595703125,1.36962890625t-1.56005859375,0.673828125t-1.75048828125,0.17578125q-0.7763671875,0-1.4501953125-0.30029296875t-0.9375-1.13525390625q0-0.234375,0.34423828125-0.29296875t0.49072265625-0.05859375q0.4833984375,0,0.7177734375,0.263671875q0.17578125,0.205078125,0.38818359375,0.41748046875t0.44677734375,0.21240234375q0.4541015625,0,0.9521484375-0.25634765625t0.91552734375-0.673828125t0.703125-0.98876953125t0.28564453125-1.171875q0-0.5126953125-0.087890625-1.2744140625t-0.30029296875-1.46484375t-0.5859375-1.2158203125t-0.94482421875-0.5126953125q-0.8642578125,0-1.56005859375,0.791015625t-1.1572265625,1.904296875t-0.7177734375,2.314453125t-0.25634765625,2.0068359375t0.1025390625,2.0361328125t0.21240234375,2.55615234375t0.21240234375,2.55615234375t0.1025390625,2.0361328125q0,0.205078125-0.16845703125,0.32958984375t-0.40283203125,0.19775390625t-0.47607421875,0.087890625t-0.35888671875,0.0146484375q-0.3955078125,0-0.82763671875-0.087890625t-0.59326171875-0.5419921875q-0.205078125-0.7177734375-0.380859375-2.04345703125t-0.31494140625-2.9296875t-0.24169921875-3.369140625t-0.17578125-3.40576171875t-0.10986328125-3.0029296875t-0.03662109375-2.16796875z"/></svg>
